<?xml version="1.0" encoding="UTF-8"?>
<svg id="Layer_1" data-name="Layer 1" xmlns="http://www.w3.org/2000/svg" viewBox="0 0 1080 1080">
  <defs>
    <style>
      .cls-1 {
        fill: #f1f1f1;
      }

      .cls-1, .cls-2 {
        stroke-width: 0px;
      }

      .cls-2 {
        fill: #ed3b91;
      }
    </style>
  </defs>
  <g>
    <path class="cls-1" d="M724.52,586.64c-3.91,25.33-11.15,49.41-21.67,71.96-16.47,35.29-39.66,66.3-68.93,92.18-6.65,5.88-13.6,11.49-20.83,16.83,20.84,36.87,60.4,61.76,105.78,61.76,67.07,0,121.43-54.37,121.43-121.43s-51.34-118.34-115.78-121.3ZM718.86,725.84c-9.89,0-17.9-8.02-17.9-17.9s8.02-17.9,17.9-17.9,17.9,8.02,17.9,17.9-8.02,17.9-17.9,17.9Z"/>
    <path class="cls-1" d="M1039.64,572.41c-17.54-41.46-42.64-78.69-74.6-110.66-31.97-31.97-69.2-57.07-110.65-74.6-20.68-8.75-41.99-15.41-63.77-19.98-1.53,5.63-3.28,11.11-5.26,16.41-3.13,8.36-6.84,16.78-11.11,25.21,21.57,3.96,42.63,10.26,62.99,18.88,36.21,15.32,68.74,37.25,96.68,65.19,27.94,27.94,49.87,60.47,65.19,96.68,15.85,37.48,23.89,77.31,23.89,118.38s-8.04,80.9-23.89,118.38c-15.32,36.21-37.25,68.74-65.19,96.68-27.94,27.94-60.47,49.87-96.68,65.19-37.48,15.85-77.31,23.89-118.38,23.89-10.84,0-21.58-.57-32.23-1.68-7.72,14.62-16.85,28.2-27.3,40.62,19.52,3.36,39.39,5.06,59.52,5.06,46.99,0,92.59-9.21,135.52-27.37,41.46-17.54,78.69-42.64,110.65-74.6,31.97-31.97,57.07-69.2,74.6-110.65,18.16-42.94,27.37-88.53,27.37-135.52s-9.21-92.58-27.37-135.52Z"/>
    <path class="cls-2" d="M491.97,1079.88c-155.49.82-223.91-148.75-275.49-277.92-1.7-4.25-5.26-7.49-9.67-8.74C5.34,736.41,28.9,430.58,248.68,429.12c51.72-1.16,97.3,21.83,127.46,58.02,9.05,10.86,26.85,4.25,26.27-9.87-1.73-41.72-110.24-84.02-148.05-78.64-.71.1-1.42.17-2.14.16-42.13-.04-70.84,7.02-105.39,23-1.97.91-4.1,1.4-6.27,1.4-13.58,0-65.49,0-85.26,0-4.92,0-9.51-2.45-12.28-6.51-11.34-16.65-19.93-33.06-25.77-49.2-20.32-57.24-8.99-126.71,25.74-177.82,2.75-4.05,7.35-6.46,12.25-6.46,68.68,0,578.11,0,649.35,0,5.18,0,9.98,2.71,12.67,7.13,22.74,37.36,35.27,68.12,35.15,114.18,0,45.34-12.04,76.29-36.35,112.15-2.77,4.08-7.37,6.53-12.29,6.53-7.31,0-18.65,0-29.08,0-11,0-18.11,11.52-13.28,21.41,75.37,154.36-53.71,324.1-216.22,344-18.34,2.25-16.69,29.41,1.78,29.53.27,0,.55,0,.83,0,123.49.95,80.51-75.22,161.7,40.84.32.46.67.91,1.05,1.33,15.68,17.81,33.79,35.3,51.69,49.7,4.11,3.31,6.13,8.54,5.38,13.77-12.59,86.76-83.32,159.64-175.64,156.11Z"/>
  </g>
  <g>
    <path class="cls-1" d="M48.96,158.85H13.87v-94.78h35.09v14.66h-.58c.62-1.77,2.12-4.02,4.5-6.75,2.38-2.73,5.73-5.2,10.04-7.39,4.31-2.19,9.58-3.29,15.82-3.29,4.39,0,8.43.67,12.12,2.02,3.69,1.35,6.39,2.64,8.08,3.87l-13.62,28.51c-1.08-1.31-2.98-2.67-5.71-4.1-2.73-1.42-6.14-2.14-10.22-2.14-4.7,0-8.56,1.19-11.6,3.58-3.04,2.39-5.27,5.27-6.7,8.66-1.42,3.39-2.14,6.58-2.14,9.58v47.56Z"/>
    <path class="cls-1" d="M167.87,158.85v-15.35c-.69,1.54-2.44,3.77-5.25,6.7-2.81,2.93-6.52,5.56-11.14,7.91-4.62,2.35-10.01,3.52-16.16,3.52-9.24,0-17.32-2.25-24.24-6.75-6.93-4.5-12.31-10.54-16.16-18.12-3.85-7.58-5.77-15.99-5.77-25.22s1.92-17.64,5.77-25.22c3.85-7.58,9.24-13.64,16.16-18.18,6.93-4.54,15.01-6.81,24.24-6.81,5.93,0,11.12.94,15.58,2.83,4.46,1.89,8.08,4.12,10.85,6.7,2.77,2.58,4.69,4.95,5.77,7.1v-13.85h34.86v94.78h-34.52ZM123.54,111.52c0,4.31,1,8.18,3,11.6,2,3.43,4.68,6.1,8.02,8.02,3.35,1.92,7.06,2.89,11.14,2.89s7.97-.96,11.2-2.89c3.23-1.92,5.79-4.6,7.68-8.02,1.89-3.42,2.83-7.29,2.83-11.6s-.94-8.18-2.83-11.6c-1.89-3.42-4.44-6.12-7.68-8.08-3.23-1.96-6.97-2.94-11.2-2.94s-7.79.98-11.14,2.94c-3.35,1.96-6.02,4.66-8.02,8.08-2,3.43-3,7.29-3,11.6Z"/>
    <path class="cls-1" d="M286.66,158.85v-15.35c-.69,1.54-2.44,3.77-5.25,6.7-2.81,2.93-6.52,5.56-11.14,7.91-4.62,2.35-10.01,3.52-16.16,3.52-9.24,0-17.32-2.25-24.24-6.75-6.93-4.5-12.31-10.54-16.16-18.12-3.85-7.58-5.77-15.99-5.77-25.22s1.92-17.64,5.77-25.22c3.85-7.58,9.24-13.64,16.16-18.18,6.93-4.54,15.01-6.81,24.24-6.81,5.93,0,11.12.94,15.58,2.83,4.46,1.89,8.08,4.12,10.85,6.7,2.77,2.58,4.69,4.95,5.77,7.1v-13.85h34.86v94.78h-34.52ZM242.33,111.52c0,4.31,1,8.18,3,11.6,2,3.43,4.68,6.1,8.02,8.02,3.35,1.92,7.06,2.89,11.14,2.89s7.97-.96,11.2-2.89c3.23-1.92,5.79-4.6,7.68-8.02,1.89-3.42,2.83-7.29,2.83-11.6s-.94-8.18-2.83-11.6c-1.89-3.42-4.44-6.12-7.68-8.08s-6.97-2.94-11.2-2.94-7.79.98-11.14,2.94-6.02,4.66-8.02,8.08c-2,3.43-3,7.29-3,11.6Z"/>
    <path class="cls-1" d="M397.95,61.3c6.62,0,13.08,1.35,19.39,4.04,6.31,2.69,11.5,6.95,15.58,12.76,4.08,5.81,6.12,13.45,6.12,22.92v57.84h-35.09v-52.06c0-6.77-1.52-11.87-4.56-15.3-3.04-3.42-7.18-5.14-12.41-5.14-3.46,0-6.77.91-9.93,2.71-3.16,1.81-5.71,4.35-7.68,7.62-1.96,3.27-2.94,7.02-2.94,11.26v50.91h-35.21V0h35.21v78.04c.85-2.54,2.75-5.1,5.71-7.68,2.96-2.58,6.7-4.73,11.2-6.46,4.5-1.73,9.37-2.6,14.6-2.6Z"/>
    <path class="cls-1" d="M476.21,118.9c.23,3.39,1.31,6.39,3.23,9,1.92,2.62,4.6,4.68,8.02,6.18,3.42,1.5,7.48,2.25,12.18,2.25s8.48-.46,12.06-1.39c3.58-.92,6.7-2.08,9.35-3.46,2.66-1.39,4.71-2.81,6.18-4.27l13.62,21.7c-1.92,2.08-4.64,4.1-8.14,6.06-3.5,1.96-8.1,3.56-13.8,4.79-5.7,1.23-12.89,1.85-21.59,1.85-10.47,0-19.78-1.96-27.94-5.89-8.16-3.93-14.59-9.7-19.28-17.32-4.7-7.62-7.04-16.93-7.04-27.94,0-9.24,2.02-17.57,6.06-24.99,4.04-7.43,9.91-13.31,17.6-17.66,7.69-4.35,16.97-6.52,27.82-6.52s19.26,1.89,26.84,5.66c7.58,3.77,13.43,9.37,17.55,16.8,4.12,7.43,6.18,16.68,6.18,27.76,0,.62-.02,1.85-.06,3.69-.04,1.85-.14,3.08-.29,3.69h-68.57ZM512.11,100.55c-.08-2.46-.73-4.91-1.96-7.33-1.23-2.42-3.08-4.42-5.54-6-2.46-1.58-5.62-2.37-9.47-2.37s-7.1.75-9.75,2.25c-2.66,1.5-4.68,3.45-6.06,5.83-1.39,2.39-2.16,4.93-2.31,7.62h35.09Z"/>
    <path class="cls-1" d="M575.26,161.62c-5.7,0-10.6-2.06-14.72-6.18-4.12-4.12-6.18-9.02-6.18-14.72s2.06-10.83,6.18-14.95c4.12-4.12,9.02-6.18,14.72-6.18s10.81,2.06,14.89,6.18c4.08,4.12,6.12,9.1,6.12,14.95s-2.04,10.6-6.12,14.72c-4.08,4.12-9.04,6.18-14.89,6.18Z"/>
    <path class="cls-1" d="M661.61,134.03c4.39,0,8-.75,10.85-2.25,2.85-1.5,4.77-2.71,5.77-3.64l16.05,23.78c-1.23,1-3.35,2.29-6.35,3.87-3,1.58-6.75,2.94-11.26,4.1-4.5,1.15-9.64,1.73-15.41,1.73-10.85,0-20.4-2.06-28.63-6.18-8.24-4.12-14.64-9.95-19.22-17.49-4.58-7.54-6.87-16.39-6.87-26.55s2.29-19.09,6.87-26.55c4.58-7.46,10.99-13.26,19.22-17.37,8.23-4.12,17.78-6.18,28.63-6.18,5.69,0,10.79.6,15.3,1.79,4.5,1.19,8.29,2.54,11.37,4.04,3.08,1.5,5.23,2.79,6.46,3.87l-16.39,24.01c-.54-.54-1.52-1.31-2.94-2.31-1.42-1-3.25-1.88-5.48-2.66-2.23-.77-4.89-1.15-7.97-1.15-3.77,0-7.29.96-10.56,2.89-3.27,1.92-5.91,4.58-7.91,7.97-2,3.39-3,7.27-3,11.66s1,8.29,3,11.72c2,3.43,4.64,6.1,7.91,8.02,3.27,1.92,6.79,2.89,10.56,2.89Z"/>
    <path class="cls-1" d="M745.3,161.62c-10.39,0-19.61-2.14-27.65-6.41-8.04-4.27-14.35-10.16-18.93-17.66-4.58-7.5-6.87-16.1-6.87-25.8s2.29-18.34,6.87-25.92c4.58-7.58,10.89-13.56,18.93-17.95,8.04-4.39,17.26-6.58,27.65-6.58s19.55,2.19,27.48,6.58c7.93,4.39,14.12,10.37,18.59,17.95,4.46,7.58,6.7,16.22,6.7,25.92s-2.23,18.3-6.7,25.8c-4.46,7.5-10.66,13.39-18.59,17.66-7.93,4.27-17.09,6.41-27.48,6.41ZM745.3,132.76c4,0,7.46-.88,10.39-2.66,2.92-1.77,5.19-4.27,6.81-7.5s2.42-6.89,2.42-10.97-.81-7.85-2.42-11.08-3.89-5.77-6.81-7.62c-2.93-1.85-6.39-2.77-10.39-2.77s-7.49.92-10.45,2.77c-2.96,1.85-5.27,4.39-6.93,7.62-1.66,3.23-2.48,6.93-2.48,11.08s.83,7.73,2.48,10.97c1.65,3.23,3.96,5.73,6.93,7.5,2.96,1.77,6.44,2.66,10.45,2.66Z"/>
  </g>
</svg>